<?xml version="1.0" standalone="no"?>
<!DOCTYPE svg PUBLIC "-//W3C//DTD SVG 20010904//EN"
 "http://www.w3.org/TR/2001/REC-SVG-20010904/DTD/svg10.dtd">
<svg version="1.0" xmlns="http://www.w3.org/2000/svg"
 width="1024.000000pt" height="1024.000000pt" viewBox="0 0 1024.000000 1024.000000"
 preserveAspectRatio="xMidYMid meet">
<metadata>
Created by potrace 1.11, written by Peter Selinger 2001-2013
</metadata>
<g transform="translate(0.000000,1024.000000) scale(0.100000,-0.100000)"
fill="#000000" stroke="none">
<path d="M930 8450 c-48 -13 -105 -49 -141 -87 -66 -70 -89 -132 -85 -230 5
-113 71 -213 176 -265 44 -23 53 -23 474 -28 l430 -5 98 -260 c54 -143 114
-300 133 -350 19 -49 107 -283 195 -520 89 -236 165 -439 170 -450 5 -11 54
-139 109 -285 54 -146 145 -386 201 -535 56 -148 112 -297 125 -330 68 -183
100 -269 130 -345 18 -47 58 -155 90 -240 31 -85 63 -168 70 -185 7 -16 38
-100 70 -185 31 -85 63 -168 70 -185 24 -54 175 -462 175 -474 0 -6 -6 -11
-13 -11 -8 0 -22 -9 -32 -20 -10 -11 -23 -20 -28 -20 -15 0 -96 -67 -156 -129
-159 -166 -240 -362 -247 -601 -8 -262 78 -482 261 -665 169 -168 363 -253
595 -260 94 -3 131 0 235 20 84 15 242 89 320 149 183 140 306 337 351 561 17
89 12 308 -10 385 -9 30 -16 58 -16 63 0 4 408 7 906 7 l906 0 -6 -27 c-23
-100 -35 -188 -36 -254 -2 -490 389 -898 865 -903 128 -1 187 5 269 29 383
112 647 467 647 870 0 50 -2 99 -5 110 -2 11 -7 40 -11 65 -12 72 -64 209
-107 283 -87 150 -237 287 -388 356 -99 45 -104 47 -180 67 -61 17 -175 18
-1779 21 -943 1 -1718 6 -1722 10 -11 13 -159 415 -155 422 2 3 888 6 1968 6
2031 -1 1998 -1 2074 38 43 22 101 84 123 131 11 23 50 140 87 261 36 121 80
263 96 315 16 52 36 115 43 140 7 25 63 207 124 405 62 198 114 367 116 375 1
8 14 51 28 95 14 44 44 139 65 210 22 72 55 177 73 235 18 58 34 110 35 115 1
6 41 136 89 290 48 154 91 294 96 310 49 157 -23 321 -170 389 l-46 21 -3028
1 c-1808 0 -3031 4 -3037 10 -7 8 -95 236 -291 758 -33 88 -68 174 -79 190
-30 49 -81 93 -135 118 l-50 23 -555 1 c-305 1 -566 -2 -580 -6z m3621 -1732
c1 -13 2 -34 4 -48 1 -14 5 -70 9 -125 4 -55 9 -122 12 -150 2 -27 6 -79 9
-115 2 -36 7 -95 10 -132 3 -38 7 -98 10 -135 3 -38 7 -102 11 -143 l6 -75
-704 0 c-697 -1 -703 -1 -714 20 -7 11 -53 130 -103 265 -51 135 -96 254 -101
265 -5 11 -36 92 -69 180 -33 88 -64 172 -70 188 l-11 27 850 0 850 0 1 -22z
m1755 -70 c-4 -51 -9 -111 -11 -133 -2 -22 -7 -78 -10 -125 -8 -113 -14 -194
-20 -255 -2 -27 -8 -93 -11 -145 -4 -52 -8 -106 -10 -120 -1 -14 -2 -36 -3
-50 l-1 -25 -655 0 c-648 0 -655 0 -656 20 0 11 -2 29 -3 40 -2 11 -6 63 -10
115 -8 106 -14 190 -21 265 -3 28 -7 88 -10 135 -3 47 -8 101 -10 120 -2 19
-7 83 -10 143 l-7 107 727 0 727 0 -6 -92z m1853 -35 c-22 -71 -56 -180 -75
-243 -20 -63 -45 -142 -55 -175 -68 -226 -102 -335 -112 -365 l-13 -35 -678 0
-678 0 6 105 c4 58 9 123 11 145 2 22 6 78 10 125 5 83 12 165 20 265 3 28 7
91 10 141 4 50 8 99 10 110 2 10 4 27 4 37 1 16 46 17 790 17 l789 0 -39 -127z
m-3516 -1133 c3 -3 8 -54 12 -113 4 -60 8 -118 10 -130 2 -12 7 -65 10 -117 3
-52 8 -117 10 -145 2 -27 7 -84 10 -125 3 -41 8 -105 11 -141 l6 -66 -535 0
-536 0 -17 46 c-10 25 -19 51 -20 56 -4 14 -212 566 -223 590 -13 28 -51 134
-51 143 0 8 1306 10 1313 2z m1560 1 c10 0 16 -4 14 -8 -3 -5 -8 -54 -11 -111
-4 -57 -9 -117 -11 -135 -2 -18 -6 -72 -10 -122 -10 -137 -22 -298 -30 -393
-3 -29 -7 -57 -9 -61 -6 -9 -1126 -11 -1127 -2 0 3 -2 17 -4 31 -1 14 -6 70
-10 125 -3 55 -8 116 -10 135 -2 19 -6 80 -10 135 -4 55 -8 116 -10 135 -1 19
-6 80 -10 135 -4 55 -9 107 -10 115 -1 8 1 17 5 20 7 4 1185 5 1243 1z m1607
0 c0 -2 -18 -63 -41 -135 -23 -72 -45 -144 -49 -161 -4 -16 -42 -140 -84 -274
-42 -134 -76 -249 -76 -256 0 -9 -133 -12 -551 -12 l-551 0 7 91 c3 50 8 118
10 151 2 33 7 90 10 126 4 37 8 87 10 110 13 188 18 257 21 279 1 14 2 39 3
55 l1 30 645 0 c355 0 645 -2 645 -4z m-3862 -2540 c96 -49 150 -127 159 -230
11 -117 -50 -228 -153 -281 -69 -35 -178 -35 -248 0 -58 30 -112 91 -138 157
-41 104 -3 246 85 317 82 66 207 82 295 37z m3516 -1 c89 -45 156 -150 158
-247 0 -22 -7 -66 -17 -98 -21 -74 -96 -153 -169 -178 -258 -88 -477 203 -324
430 76 112 231 153 352 93z"/>
</g>
</svg>
